{
  "accessors": [
    {
      "bufferView": 2,
      "componentType": 5126,
      "count": 450,
      "max": [
        -42.22953414916992,
        -3.6835741996765137,
        13.077856063842773
      ],
      "min": [
        -52.12953567504883,
        -13.583577156066895,
        3.1778547763824463
      ],
      "type": "VEC3"
    },
    {
      "bufferView": 2,
      "byteOffset": 5400,
      "componentType": 5126,
      "count": 450,
      "max": [
        1.0,
        1.0,
        1.0
      ],
      "min": [
        -1.0,
        -1.0,
        -1.0
      ],
      "type": "VEC3"
    },
    {
      "bufferView": 1,
      "componentType": 5126,
      "count": 450,
      "max": [
        1.9741706848144531,
        1.1584959030151367
      ],
      "min": [
        -0.19193243980407715,
        0.23832249641418457
      ],
      "type": "VEC2"
    },
    {
      "bufferView": 0,
      "componentType": 5125,
      "count": 2280,
      "type": "SCALAR"
    },
    {
      "bufferView": 2,
      "byteOffset": 10800,
      "componentType": 5126,
      "count": 4274,
      "max": [
        148.88600158691406,
        15.056694030761719,
        61.7750358581543
      ],
      "min": [
        -195.96693420410156,
        -53.46120834350586,
        -45.965675354003906
      ],
      "type": "VEC3"
    },
    {
      "bufferView": 2,
      "byteOffset": 62088,
      "componentType": 5126,
      "count": 4274,
      "max": [
        1.0,
        0.999999463558197,
        0.999991238117218
      ],
      "min": [
        -1.0,
        -0.9999994039535522,
        -0.998982846736908
      ],
      "type": "VEC3"
    },
    {
      "bufferView": 1,
      "byteOffset": 3600,
      "componentType": 5126,
      "count": 4274,
      "max": [
        0.99951171875,
        0.99951171875
      ],
      "min": [
        0.00048828125,
        0.0009369850158691406
      ],
      "type": "VEC2"
    },
    {
      "bufferView": 0,
      "byteOffset": 9120,
      "componentType": 5125,
      "count": 21636,
      "type": "SCALAR"
    },
    {
      "bufferView": 2,
      "byteOffset": 113376,
      "componentType": 5126,
      "count": 450,
      "max": [
        -42.22953414916992,
        -23.472972869873047,
        13.077856063842773
      ],
      "min": [
        -52.12953567504883,
        -33.37297439575195,
        3.1778547763824463
      ],
      "type": "VEC3"
    },
    {
      "bufferView": 2,
      "byteOffset": 118776,
      "componentType": 5126,
      "count": 450,
      "max": [
        1.0,
        1.0,
        1.0
      ],
      "min": [
        -1.0,
        -1.0,
        -1.0
      ],
      "type": "VEC3"
    },
    {
      "bufferView": 1,
      "byteOffset": 37792,
      "componentType": 5126,
      "count": 450,
      "max": [
        1.9741706848144531,
        1.1584959030151367
      ],
      "min": [
        -0.19193243980407715,
        0.23832249641418457
      ],
      "type": "VEC2"
    },
    {
      "bufferView": 0,
      "byteOffset": 95664,
      "componentType": 5125,
      "count": 2280,
      "type": "SCALAR"
    }
  ],
  "asset": {
    "extras": {
      "author": "Andrew.Mischenko (https://sketchfab.com/Andrew.Mischenko)",
      "license": "CC-BY-4.0 (http://creativecommons.org/licenses/by/4.0/)",
      "source": "https://sketchfab.com/3d-models/swordie-the-swordfish-17986b3d18a549b9843a3bd3ef41efea",
      "title": "Swordie The Swordfish"
    },
    "generator": "Sketchfab-16.56.0",
    "version": "2.0"
  },
  "bufferViews": [
    {
      "buffer": 0,
      "byteLength": 104784,
      "name": "floatBufferViews",
      "target": 34963
    },
    {
      "buffer": 0,
      "byteLength": 41392,
      "byteOffset": 104784,
      "byteStride": 8,
      "name": "floatBufferViews",
      "target": 34962
    },
    {
      "buffer": 0,
      "byteLength": 124176,
      "byteOffset": 146176,
      "byteStride": 12,
      "name": "floatBufferViews",
      "target": 34962
    }
  ],
  "buffers": [
    {
      "byteLength": 270352,
      "uri": "scene.bin"
    }
  ],
  "images": [
    {
      "uri": "textures/eyeball_surface.001_baseColor.png"
    }
  ],
  "materials": [
    {
      "doubleSided": true,
      "name": "eyeball_surface.001",
      "pbrMetallicRoughness": {
        "baseColorTexture": {
          "index": 0
        },
        "metallicFactor": 0.0,
        "roughnessFactor": 0.0
      }
    },
    {
      "doubleSided": true,
      "name": "torso_surface",
      "pbrMetallicRoughness": {
        "baseColorFactor": [
          0.05359459999999998,
          0.16546299999999992,
          0.338542,
          1.0
        ],
        "metallicFactor": 0.0,
        "roughnessFactor": 0.778669039753264
      }
    },
    {
      "doubleSided": true,
      "name": "eyeball_surface",
      "pbrMetallicRoughness": {
        "baseColorTexture": {
          "index": 0
        },
        "metallicFactor": 0.0,
        "roughnessFactor": 0.0
      }
    }
  ],
  "meshes": [
    {
      "name": "swordie_non_sym_SkelMesh.004_eyeball_surface.001_0",
      "primitives": [
        {
          "attributes": {
            "NORMAL": 1,
            "POSITION": 0,
            "TEXCOORD_0": 2
          },
          "indices": 3,
          "material": 0,
          "mode": 4
        }
      ]
    },
    {
      "name": "swordie_non_sym_SkelMesh.004_torso_surface_0",
      "primitives": [
        {
          "attributes": {
            "NORMAL": 5,
            "POSITION": 4,
            "TEXCOORD_0": 6
          },
          "indices": 7,
          "material": 1,
          "mode": 4
        }
      ]
    },
    {
      "name": "swordie_non_sym_SkelMesh.004_eyeball_surface_0",
      "primitives": [
        {
          "attributes": {
            "NORMAL": 9,
            "POSITION": 8,
            "TEXCOORD_0": 10
          },
          "indices": 11,
          "material": 2,
          "mode": 4
        }
      ]
    }
  ],
  "nodes": [
    {
      "children": [
        1
      ],
      "matrix": [
        1.0,
        0.0,
        0.0,
        0.0,
        0.0,
        2.220446049250313e-16,
        -1.0,
        0.0,
        0.0,
        1.0,
        2.220446049250313e-16,
        0.0,
        0.0,
        0.0,
        0.0,
        1.0
      ],
      "name": "Sketchfab_model"
    },
    {
      "children": [
        2
      ],
      "matrix": [
        0.009999999776482582,
        0.0,
        0.0,
        0.0,
        0.0,
        0.0,
        0.009999999776482582,
        0.0,
        0.0,
        -0.009999999776482582,
        0.0,
        0.0,
        0.0,
        0.0,
        0.0,
        1.0
      ],
      "name": "25598287e05e42eabbc7f1666fa24225.fbx"
    },
    {
      "children": [
        3
      ],
      "name": "RootNode"
    },
    {
      "children": [
        4,
        5,
        6
      ],
      "matrix": [
        100.0,
        0.0,
        0.0,
        0.0,
        0.0,
        -1.629206793918314e-05,
        -99.99999999999868,
        0.0,
        0.0,
        99.99999999999868,
        -1.629206793918314e-05,
        0.0,
        0.0,
        0.0,
        -1978.9398193359375,
        1.0
      ],
      "name": "swordie_non_sym_SkelMesh.004"
    },
    {
      "mesh": 0,
      "name": "swordie_non_sym_SkelMesh.004_eyeball_surface.001_0"
    },
    {
      "mesh": 1,
      "name": "swordie_non_sym_SkelMesh.004_torso_surface_0"
    },
    {
      "mesh": 2,
      "name": "swordie_non_sym_SkelMesh.004_eyeball_surface_0"
    }
  ],
  "samplers": [
    {
      "magFilter": 9729,
      "minFilter": 9987,
      "wrapS": 10497,
      "wrapT": 10497
    }
  ],
  "scene": 0,
  "scenes": [
    {
      "name": "Sketchfab_Scene",
      "nodes": [
        0
      ]
    }
  ],
  "textures": [
    {
      "sampler": 0,
      "source": 0
    }
  ]
}
