{
  "accessors": [
    {
      "bufferView": 2,
      "componentType": 5126,
      "count": 14120,
      "max": [
        4.327660083770752,
        0.45576098561286926,
        0.05011799931526184
      ],
      "min": [
        -2.413796901702881,
        -0.5121790170669556,
        -0.6050029993057251
      ],
      "type": "VEC3"
    },
    {
      "bufferView": 2,
      "byteOffset": 169440,
      "componentType": 5126,
      "count": 14120,
      "max": [
        1.0,
        1.0,
        1.0
      ],
      "min": [
        -1.0,
        -1.0,
        -1.0
      ],
      "type": "VEC3"
    },
    {
      "bufferView": 1,
      "componentType": 5126,
      "count": 14120,
      "max": [
        1.0,
        1.0
      ],
      "min": [
        0.0,
        0.0
      ],
      "type": "VEC2"
    },
    {
      "bufferView": 0,
      "componentType": 5125,
      "count": 78012,
      "type": "SCALAR"
    },
    {
      "bufferView": 2,
      "byteOffset": 338880,
      "componentType": 5126,
      "count": 1956,
      "max": [
        -2.2916529178619385,
        0.20490700006484985,
        -0.016326000913977623
      ],
      "min": [
        -3.093877077102661,
        -0.22578999400138855,
        -0.2645449936389923
      ],
      "type": "VEC3"
    },
    {
      "bufferView": 2,
      "byteOffset": 362352,
      "componentType": 5126,
      "count": 1956,
      "max": [
        0.9998503923416138,
        0.9998860359191895,
        0.999187707901001
      ],
      "min": [
        -1.0,
        -0.9998860359191895,
        -0.999187707901001
      ],
      "type": "VEC3"
    },
    {
      "bufferView": 1,
      "byteOffset": 112960,
      "componentType": 5126,
      "count": 1956,
      "max": [
        0.875,
        1.0
      ],
      "min": [
        0.125,
        0.0
      ],
      "type": "VEC2"
    },
    {
      "bufferView": 0,
      "byteOffset": 312048,
      "componentType": 5125,
      "count": 10506,
      "type": "SCALAR"
    },
    {
      "bufferView": 2,
      "byteOffset": 385824,
      "componentType": 5126,
      "count": 17448,
      "max": [
        4.33121919631958,
        0.6503499746322632,
        0.6254739761352539
      ],
      "min": [
        -3.274880886077881,
        -0.6566439867019653,
        -0.5968260169029236
      ],
      "type": "VEC3"
    },
    {
      "bufferView": 2,
      "byteOffset": 595200,
      "componentType": 5126,
      "count": 17448,
      "max": [
        0.999950647354126,
        1.0,
        0.9999988079071045
      ],
      "min": [
        -1.0,
        -1.0,
        -0.999187707901001
      ],
      "type": "VEC3"
    },
    {
      "bufferView": 1,
      "byteOffset": 128608,
      "componentType": 5126,
      "count": 17448,
      "max": [
        0.875,
        1.0
      ],
      "min": [
        0.125,
        0.0
      ],
      "type": "VEC2"
    },
    {
      "bufferView": 0,
      "byteOffset": 354072,
      "componentType": 5125,
      "count": 98553,
      "type": "SCALAR"
    },
    {
      "bufferView": 2,
      "byteOffset": 804576,
      "componentType": 5126,
      "count": 4513,
      "max": [
        0.7907779812812805,
        -0.3884260058403015,
        0.2214750051498413
      ],
      "min": [
        -1.1040250062942505,
        -1.1595569849014282,
        -0.7963500022888184
      ],
      "type": "VEC3"
    },
    {
      "bufferView": 2,
      "byteOffset": 858732,
      "componentType": 5126,
      "count": 4513,
      "max": [
        0.9960270524024963,
        0.9994603991508484,
        0.9907248020172119
      ],
      "min": [
        -0.9788367748260498,
        -0.9996322989463806,
        -0.999816358089447
      ],
      "type": "VEC3"
    },
    {
      "bufferView": 1,
      "byteOffset": 268192,
      "componentType": 5126,
      "count": 4513,
      "max": [
        0.875,
        1.0
      ],
      "min": [
        0.125,
        0.0
      ],
      "type": "VEC2"
    },
    {
      "bufferView": 0,
      "byteOffset": 748284,
      "componentType": 5125,
      "count": 26112,
      "type": "SCALAR"
    },
    {
      "bufferView": 2,
      "byteOffset": 912888,
      "componentType": 5126,
      "count": 4513,
      "max": [
        0.47269898653030396,
        1.3485000133514404,
        0.1791519969701767
      ],
      "min": [
        -1.1749149560928345,
        0.32029101252555847,
        -0.8221150040626526
      ],
      "type": "VEC3"
    },
    {
      "bufferView": 2,
      "byteOffset": 967044,
      "componentType": 5126,
      "count": 4513,
      "max": [
        0.9959815740585327,
        0.9989389181137085,
        0.999900221824646
      ],
      "min": [
        -0.9929012060165405,
        -0.9999567270278931,
        -0.9984304308891296
      ],
      "type": "VEC3"
    },
    {
      "bufferView": 1,
      "byteOffset": 304296,
      "componentType": 5126,
      "count": 4513,
      "max": [
        0.875,
        1.0
      ],
      "min": [
        0.125,
        0.0
      ],
      "type": "VEC2"
    },
    {
      "bufferView": 0,
      "byteOffset": 852732,
      "componentType": 5125,
      "count": 26112,
      "type": "SCALAR"
    },
    {
      "bufferView": 2,
      "byteOffset": 1021200,
      "componentType": 5126,
      "count": 4513,
      "max": [
        0.21997100114822388,
        0.11590299755334854,
        0.823989987373352
      ],
      "min": [
        -1.391471028327942,
        -0.01590999960899353,
        0.4828619956970215
      ],
      "type": "VEC3"
    },
    {
      "bufferView": 2,
      "byteOffset": 1075356,
      "componentType": 5126,
      "count": 4513,
      "max": [
        0.9992291927337646,
        0.9999979734420776,
        0.9999990463256836
      ],
      "min": [
        -0.9994432926177979,
        -0.9999995231628418,
        -0.9999673366546631
      ],
      "type": "VEC3"
    },
    {
      "bufferView": 1,
      "byteOffset": 340400,
      "componentType": 5126,
      "count": 4513,
      "max": [
        0.875,
        1.0
      ],
      "min": [
        0.125,
        0.0
      ],
      "type": "VEC2"
    },
    {
      "bufferView": 0,
      "byteOffset": 957180,
      "componentType": 5125,
      "count": 26112,
      "type": "SCALAR"
    },
    {
      "bufferView": 2,
      "byteOffset": 1129512,
      "componentType": 5126,
      "count": 559,
      "max": [
        -2.1316978931427,
        -0.3776269853115082,
        0.2243259996175766
      ],
      "min": [
        -2.2079250812530518,
        -0.46146199107170105,
        0.14809800684452057
      ],
      "type": "VEC3"
    },
    {
      "bufferView": 2,
      "byteOffset": 1136220,
      "componentType": 5126,
      "count": 559,
      "max": [
        1.0,
        1.0,
        1.0
      ],
      "min": [
        -1.0,
        -1.0,
        -1.0
      ],
      "type": "VEC3"
    },
    {
      "bufferView": 1,
      "byteOffset": 376504,
      "componentType": 5126,
      "count": 559,
      "max": [
        1.0,
        1.0
      ],
      "min": [
        0.0,
        0.0
      ],
      "type": "VEC2"
    },
    {
      "bufferView": 0,
      "byteOffset": 1061628,
      "componentType": 5125,
      "count": 2880,
      "type": "SCALAR"
    },
    {
      "bufferView": 2,
      "byteOffset": 1142928,
      "componentType": 5126,
      "count": 559,
      "max": [
        -2.131696939468384,
        0.46739399433135986,
        0.2243259996175766
      ],
      "min": [
        -2.2079250812530518,
        0.383558988571167,
        0.14809800684452057
      ],
      "type": "VEC3"
    },
    {
      "bufferView": 2,
      "byteOffset": 1149636,
      "componentType": 5126,
      "count": 559,
      "max": [
        1.0,
        1.0,
        1.0
      ],
      "min": [
        -1.0,
        -1.0,
        -1.0
      ],
      "type": "VEC3"
    },
    {
      "bufferView": 1,
      "byteOffset": 380976,
      "componentType": 5126,
      "count": 559,
      "max": [
        1.0,
        1.0
      ],
      "min": [
        0.0,
        0.0
      ],
      "type": "VEC2"
    },
    {
      "bufferView": 0,
      "byteOffset": 1073148,
      "componentType": 5125,
      "count": 2880,
      "type": "SCALAR"
    },
    {
      "bufferView": 2,
      "byteOffset": 1156344,
      "componentType": 5126,
      "count": 296,
      "max": [
        -2.1327710151672363,
        -0.37298300862312317,
        0.2290859967470169
      ],
      "min": [
        -2.2086899280548096,
        -0.4628709852695465,
        0.1667180061340332
      ],
      "type": "VEC3"
    },
    {
      "bufferView": 2,
      "byteOffset": 1159896,
      "componentType": 5126,
      "count": 296,
      "max": [
        0.9871251583099365,
        0.8587932586669922,
        0.30539751052856445
      ],
      "min": [
        -0.9971011877059937,
        -0.996000349521637,
        -0.997831404209137
      ],
      "type": "VEC3"
    },
    {
      "bufferView": 1,
      "byteOffset": 385448,
      "componentType": 5126,
      "count": 296,
      "max": [
        1.0,
        1.0
      ],
      "min": [
        0.0,
        0.5
      ],
      "type": "VEC2"
    },
    {
      "bufferView": 0,
      "byteOffset": 1084668,
      "componentType": 5125,
      "count": 1440,
      "type": "SCALAR"
    },
    {
      "bufferView": 2,
      "byteOffset": 1163448,
      "componentType": 5126,
      "count": 296,
      "max": [
        -2.1327710151672363,
        0.4642980098724365,
        0.22954300045967102
      ],
      "min": [
        -2.2086899280548096,
        0.37649399042129517,
        0.16305099427700043
      ],
      "type": "VEC3"
    },
    {
      "bufferView": 2,
      "byteOffset": 1167000,
      "componentType": 5126,
      "count": 296,
      "max": [
        0.988037645816803,
        0.9963593482971191,
        0.3893958330154419
      ],
      "min": [
        -0.9963945150375366,
        -0.8130817413330078,
        -0.9987035989761353
      ],
      "type": "VEC3"
    },
    {
      "bufferView": 1,
      "byteOffset": 387816,
      "componentType": 5126,
      "count": 296,
      "max": [
        1.0,
        1.0
      ],
      "min": [
        0.0,
        0.5
      ],
      "type": "VEC2"
    },
    {
      "bufferView": 0,
      "byteOffset": 1090428,
      "componentType": 5125,
      "count": 1440,
      "type": "SCALAR"
    }
  ],
  "asset": {
    "extras": {
      "author": "DJUniverse (https://sketchfab.com/DJUniverse)",
      "license": "SKETCHFAB Standard (https://sketchfab.com/licenses)",
      "source": "https://sketchfab.com/3d-models/extravagant-blue-ocean-dolphin-d58df41028fe4edfb2fffef6166c2e2e",
      "title": "Extravagant Blue Ocean Dolphin"
    },
    "generator": "Sketchfab-16.29.0",
    "version": "2.0"
  },
  "bufferViews": [
    {
      "buffer": 0,
      "byteLength": 1096188,
      "name": "floatBufferViews",
      "target": 34963
    },
    {
      "buffer": 0,
      "byteLength": 390184,
      "byteOffset": 1096188,
      "byteStride": 8,
      "name": "floatBufferViews",
      "target": 34962
    },
    {
      "buffer": 0,
      "byteLength": 1170552,
      "byteOffset": 1486372,
      "byteStride": 12,
      "name": "floatBufferViews",
      "target": 34962
    }
  ],
  "buffers": [
    {
      "byteLength": 2656924,
      "uri": "scene.bin"
    }
  ],
  "extensionsUsed": [
    "KHR_materials_specular"
  ],
  "materials": [
    {
      "doubleSided": true,
      "name": "Material",
      "pbrMetallicRoughness": {
        "baseColorFactor": [
          0.8,
          0.8,
          0.8,
          1.0
        ],
        "metallicFactor": 0.0,
        "roughnessFactor": 0.8011823178082373
      }
    },
    {
      "doubleSided": true,
      "name": "Material.001",
      "pbrMetallicRoughness": {
        "baseColorFactor": [
          0.8,
          0.8,
          0.8,
          1.0
        ],
        "metallicFactor": 0.0,
        "roughnessFactor": 0.8011823178082373
      }
    },
    {
      "doubleSided": true,
      "name": "Material.002",
      "pbrMetallicRoughness": {
        "baseColorFactor": [
          0.08311999999999996,
          0.665728,
          1.0,
          1.0
        ],
        "metallicFactor": 0.0,
        "roughnessFactor": 0.8011823178082373
      }
    },
    {
      "doubleSided": true,
      "name": "Material.003",
      "pbrMetallicRoughness": {
        "baseColorFactor": [
          0.06289200000000003,
          0.6001189999999995,
          0.800583,
          1.0
        ],
        "metallicFactor": 0.0,
        "roughnessFactor": 0.8011823178082373
      }
    },
    {
      "doubleSided": true,
      "name": "Material.004",
      "pbrMetallicRoughness": {
        "baseColorFactor": [
          0.03292799999999998,
          0.535846,
          0.80213,
          1.0
        ],
        "metallicFactor": 0.0,
        "roughnessFactor": 0.8011823178082373
      }
    },
    {
      "doubleSided": true,
      "name": "Material.005",
      "pbrMetallicRoughness": {
        "baseColorFactor": [
          0.0,
          0.6699529999999996,
          0.8006139999999998,
          1.0
        ],
        "metallicFactor": 0.0,
        "roughnessFactor": 0.8011823178082373
      }
    },
    {
      "doubleSided": true,
      "extensions": {
        "KHR_materials_specular": {
          "specularColorFactor": [
            1.0,
            1.0,
            1.0
          ],
          "specularFactor": 0.37638209945020784
        }
      },
      "name": "Material.006",
      "pbrMetallicRoughness": {
        "baseColorFactor": [
          0.0,
          0.0,
          0.0,
          1.0
        ],
        "metallicFactor": 0.0,
        "roughnessFactor": 0.08990503590106179
      }
    },
    {
      "doubleSided": true,
      "name": "Material.007",
      "pbrMetallicRoughness": {
        "baseColorFactor": [
          0.0,
          0.0,
          0.0,
          1.0
        ],
        "metallicFactor": 0.0,
        "roughnessFactor": 0.7549447802079671
      }
    },
    {
      "doubleSided": true,
      "name": "Material.009",
      "pbrMetallicRoughness": {
        "baseColorFactor": [
          0.173547,
          0.56495,
          0.800197,
          1.0
        ],
        "metallicFactor": 0.0,
        "roughnessFactor": 0.8011823178082373
      }
    },
    {
      "doubleSided": true,
      "name": "Material.010",
      "pbrMetallicRoughness": {
        "baseColorFactor": [
          0.173547,
          0.56495,
          0.800197,
          1.0
        ],
        "metallicFactor": 0.0,
        "roughnessFactor": 0.8011823178082373
      }
    }
  ],
  "meshes": [
    {
      "name": "Object_0",
      "primitives": [
        {
          "attributes": {
            "NORMAL": 1,
            "POSITION": 0,
            "TEXCOORD_0": 2
          },
          "indices": 3,
          "material": 0,
          "mode": 4
        }
      ]
    },
    {
      "name": "Object_1",
      "primitives": [
        {
          "attributes": {
            "NORMAL": 5,
            "POSITION": 4,
            "TEXCOORD_0": 6
          },
          "indices": 7,
          "material": 1,
          "mode": 4
        }
      ]
    },
    {
      "name": "Object_2",
      "primitives": [
        {
          "attributes": {
            "NORMAL": 9,
            "POSITION": 8,
            "TEXCOORD_0": 10
          },
          "indices": 11,
          "material": 2,
          "mode": 4
        }
      ]
    },
    {
      "name": "Object_3",
      "primitives": [
        {
          "attributes": {
            "NORMAL": 13,
            "POSITION": 12,
            "TEXCOORD_0": 14
          },
          "indices": 15,
          "material": 3,
          "mode": 4
        }
      ]
    },
    {
      "name": "Object_4",
      "primitives": [
        {
          "attributes": {
            "NORMAL": 17,
            "POSITION": 16,
            "TEXCOORD_0": 18
          },
          "indices": 19,
          "material": 4,
          "mode": 4
        }
      ]
    },
    {
      "name": "Object_5",
      "primitives": [
        {
          "attributes": {
            "NORMAL": 21,
            "POSITION": 20,
            "TEXCOORD_0": 22
          },
          "indices": 23,
          "material": 5,
          "mode": 4
        }
      ]
    },
    {
      "name": "Object_6",
      "primitives": [
        {
          "attributes": {
            "NORMAL": 25,
            "POSITION": 24,
            "TEXCOORD_0": 26
          },
          "indices": 27,
          "material": 6,
          "mode": 4
        }
      ]
    },
    {
      "name": "Object_7",
      "primitives": [
        {
          "attributes": {
            "NORMAL": 29,
            "POSITION": 28,
            "TEXCOORD_0": 30
          },
          "indices": 31,
          "material": 7,
          "mode": 4
        }
      ]
    },
    {
      "name": "Object_8",
      "primitives": [
        {
          "attributes": {
            "NORMAL": 33,
            "POSITION": 32,
            "TEXCOORD_0": 34
          },
          "indices": 35,
          "material": 8,
          "mode": 4
        }
      ]
    },
    {
      "name": "Object_9",
      "primitives": [
        {
          "attributes": {
            "NORMAL": 37,
            "POSITION": 36,
            "TEXCOORD_0": 38
          },
          "indices": 39,
          "material": 9,
          "mode": 4
        }
      ]
    }
  ],
  "nodes": [
    {
      "children": [
        1
      ],
      "matrix": [
        0.3690734803676605,
        0.0,
        0.0,
        0.0,
        0.0,
        8.195077513654348e-17,
        -0.3690734803676605,
        0.0,
        0.0,
        0.3690734803676605,
        8.195077513654348e-17,
        0.0,
        0.0,
        0.0,
        0.0,
        1.0
      ],
      "name": "Sketchfab_model"
    },
    {
      "children": [
        2,
        3,
        4,
        5,
        6,
        7,
        8,
        9,
        10,
        11
      ],
      "name": "realdolphin_.obj.cleaner.materialmerger.gles"
    },
    {
      "mesh": 0,
      "name": "Object_2"
    },
    {
      "mesh": 1,
      "name": "Object_3"
    },
    {
      "mesh": 2,
      "name": "Object_4"
    },
    {
      "mesh": 3,
      "name": "Object_5"
    },
    {
      "mesh": 4,
      "name": "Object_6"
    },
    {
      "mesh": 5,
      "name": "Object_7"
    },
    {
      "mesh": 6,
      "name": "Object_8"
    },
    {
      "mesh": 7,
      "name": "Object_9"
    },
    {
      "mesh": 8,
      "name": "Object_10"
    },
    {
      "mesh": 9,
      "name": "Object_11"
    }
  ],
  "scene": 0,
  "scenes": [
    {
      "name": "Sketchfab_Scene",
      "nodes": [
        0
      ]
    }
  ]
}
