{
  "accessors": [
    {
      "bufferView": 2,
      "componentType": 5126,
      "count": 8129,
      "max": [
        -0.21713173389434814,
        0.10274998843669891,
        1.347294807434082
      ],
      "min": [
        -0.42263174057006836,
        -0.10274998843669891,
        1.07147216796875
      ],
      "type": "VEC3"
    },
    {
      "bufferView": 2,
      "byteOffset": 97548,
      "componentType": 5126,
      "count": 8129,
      "type": "VEC3"
    },
    {
      "bufferView": 1,
      "componentType": 5126,
      "count": 8129,
      "type": "VEC2"
    },
    {
      "bufferView": 0,
      "componentType": 5125,
      "count": 48384,
      "type": "SCALAR"
    },
    {
      "bufferView": 2,
      "byteOffset": 195096,
      "componentType": 5126,
      "count": 5650,
      "max": [
        2.3377816677093506,
        0.8357266187667847,
        0.48442068696022034
      ],
      "min": [
        -1.2993133068084717,
        -0.8356764912605286,
        0.13096891343593597
      ],
      "type": "VEC3"
    },
    {
      "bufferView": 2,
      "byteOffset": 262896,
      "componentType": 5126,
      "count": 5650,
      "type": "VEC3"
    },
    {
      "bufferView": 1,
      "byteOffset": 65032,
      "componentType": 5126,
      "count": 5650,
      "type": "VEC2"
    },
    {
      "bufferView": 0,
      "byteOffset": 193536,
      "componentType": 5125,
      "count": 32160,
      "type": "SCALAR"
    },
    {
      "bufferView": 2,
      "byteOffset": 330696,
      "componentType": 5126,
      "count": 7268,
      "max": [
        0.9517610669136047,
        0.45887070894241333,
        1.029695987701416
      ],
      "min": [
        -0.4016225039958954,
        -0.45887070894241333,
        0.45370447635650635
      ],
      "type": "VEC3"
    },
    {
      "bufferView": 2,
      "byteOffset": 417912,
      "componentType": 5126,
      "count": 7268,
      "type": "VEC3"
    },
    {
      "bufferView": 3,
      "componentType": 5126,
      "count": 7268,
      "type": "VEC4"
    },
    {
      "bufferView": 1,
      "byteOffset": 110232,
      "componentType": 5126,
      "count": 7268,
      "type": "VEC2"
    },
    {
      "bufferView": 0,
      "byteOffset": 322176,
      "componentType": 5125,
      "count": 34560,
      "type": "SCALAR"
    },
    {
      "bufferView": 2,
      "byteOffset": 505128,
      "componentType": 5126,
      "count": 601,
      "max": [
        0.65836501121521,
        0.3223355710506439,
        1.1910451650619507
      ],
      "min": [
        -0.5405135154724121,
        -0.32233545184135437,
        1.053212285041809
      ],
      "type": "VEC3"
    },
    {
      "bufferView": 2,
      "byteOffset": 512340,
      "componentType": 5126,
      "count": 601,
      "type": "VEC3"
    },
    {
      "bufferView": 3,
      "byteOffset": 116288,
      "componentType": 5126,
      "count": 601,
      "type": "VEC4"
    },
    {
      "bufferView": 1,
      "byteOffset": 168376,
      "componentType": 5126,
      "count": 601,
      "type": "VEC2"
    },
    {
      "bufferView": 0,
      "byteOffset": 460416,
      "componentType": 5125,
      "count": 2880,
      "type": "SCALAR"
    },
    {
      "bufferView": 2,
      "byteOffset": 519552,
      "componentType": 5126,
      "count": 24170,
      "max": [
        0.9684364795684814,
        0.4836157262325287,
        0.8448940515518188
      ],
      "min": [
        -0.7417107224464417,
        -0.4836527407169342,
        0.09130015969276428
      ],
      "type": "VEC3"
    },
    {
      "bufferView": 2,
      "byteOffset": 809592,
      "componentType": 5126,
      "count": 24170,
      "type": "VEC3"
    },
    {
      "bufferView": 3,
      "byteOffset": 125904,
      "componentType": 5126,
      "count": 24170,
      "type": "VEC4"
    },
    {
      "bufferView": 1,
      "byteOffset": 173184,
      "componentType": 5126,
      "count": 24170,
      "type": "VEC2"
    },
    {
      "bufferView": 0,
      "byteOffset": 471936,
      "componentType": 5125,
      "count": 143688,
      "type": "SCALAR"
    },
    {
      "bufferView": 2,
      "byteOffset": 1099632,
      "componentType": 5126,
      "count": 11752,
      "max": [
        0.6367924213409424,
        0.31770312786102295,
        1.1787840127944946
      ],
      "min": [
        -0.48313719034194946,
        -0.31811636686325073,
        0.8449001908302307
      ],
      "type": "VEC3"
    },
    {
      "bufferView": 2,
      "byteOffset": 1240656,
      "componentType": 5126,
      "count": 11752,
      "type": "VEC3"
    },
    {
      "bufferView": 3,
      "byteOffset": 512624,
      "componentType": 5126,
      "count": 11752,
      "type": "VEC4"
    },
    {
      "bufferView": 1,
      "byteOffset": 366544,
      "componentType": 5126,
      "count": 11752,
      "type": "VEC2"
    },
    {
      "bufferView": 0,
      "byteOffset": 1046688,
      "componentType": 5125,
      "count": 69600,
      "type": "SCALAR"
    },
    {
      "bufferView": 2,
      "byteOffset": 1381680,
      "componentType": 5126,
      "count": 522,
      "max": [
        0.643195390701294,
        0.3211953043937683,
        0.8504889011383057
      ],
      "min": [
        -0.48507246375083923,
        -0.32157328724861145,
        0.8400983214378357
      ],
      "type": "VEC3"
    },
    {
      "bufferView": 2,
      "byteOffset": 1387944,
      "componentType": 5126,
      "count": 522,
      "type": "VEC3"
    },
    {
      "bufferView": 3,
      "byteOffset": 700656,
      "componentType": 5126,
      "count": 522,
      "type": "VEC4"
    },
    {
      "bufferView": 1,
      "byteOffset": 460560,
      "componentType": 5126,
      "count": 522,
      "type": "VEC2"
    },
    {
      "bufferView": 0,
      "byteOffset": 1325088,
      "componentType": 5125,
      "count": 1560,
      "type": "SCALAR"
    },
    {
      "bufferView": 2,
      "byteOffset": 1394208,
      "componentType": 5126,
      "count": 7097,
      "max": [
        2.2244057655334473,
        0.7272518277168274,
        0.26339221000671387
      ],
      "min": [
        -1.273012638092041,
        -0.735422670841217,
        -0.26339226961135864
      ],
      "type": "VEC3"
    },
    {
      "bufferView": 2,
      "byteOffset": 1479372,
      "componentType": 5126,
      "count": 7097,
      "type": "VEC3"
    },
    {
      "bufferView": 1,
      "byteOffset": 464736,
      "componentType": 5126,
      "count": 7097,
      "type": "VEC2"
    },
    {
      "bufferView": 0,
      "byteOffset": 1331328,
      "componentType": 5125,
      "count": 41406,
      "type": "SCALAR"
    },
    {
      "bufferView": 2,
      "byteOffset": 1564536,
      "componentType": 5126,
      "count": 11739,
      "max": [
        2.3074758052825928,
        0.7649433612823486,
        0.3935290575027466
      ],
      "min": [
        -1.2920193672180176,
        -0.7649397850036621,
        -0.40906134247779846
      ],
      "type": "VEC3"
    },
    {
      "bufferView": 2,
      "byteOffset": 1705404,
      "componentType": 5126,
      "count": 11739,
      "type": "VEC3"
    },
    {
      "bufferView": 1,
      "byteOffset": 521512,
      "componentType": 5126,
      "count": 11739,
      "type": "VEC2"
    },
    {
      "bufferView": 0,
      "byteOffset": 1496952,
      "componentType": 5125,
      "count": 69624,
      "type": "SCALAR"
    }
  ],
  "asset": {
    "generator": "fab-model-conversion",
    "version": "2.0"
  },
  "bufferViews": [
    {
      "buffer": 0,
      "byteLength": 1775448,
      "target": 34963
    },
    {
      "buffer": 0,
      "byteLength": 615424,
      "byteOffset": 1775448,
      "byteStride": 8,
      "target": 34962
    },
    {
      "buffer": 0,
      "byteLength": 1846272,
      "byteOffset": 2390872,
      "byteStride": 12,
      "target": 34962
    },
    {
      "buffer": 0,
      "byteLength": 709008,
      "byteOffset": 4237144,
      "byteStride": 16,
      "target": 34962
    }
  ],
  "buffers": [
    {
      "byteLength": 4946152,
      "uri": "scene.bin"
    }
  ],
  "extensionsUsed": [
    "KHR_materials_clearcoat",
    "KHR_materials_specular"
  ],
  "images": [
    {
      "uri": "textures/defaultMat_baseColor.jpeg"
    },
    {
      "uri": "textures/defaultMat_1_baseColor.jpeg"
    },
    {
      "uri": "textures/defaultMat_2_baseColor.jpeg"
    },
    {
      "uri": "textures/defaultMat_3_baseColor.jpeg"
    },
    {
      "uri": "textures/defaultMat_4_baseColor.jpeg"
    }
  ],
  "materials": [
    {
      "doubleSided": true,
      "name": "defaultMat",
      "pbrMetallicRoughness": {
        "baseColorTexture": {
          "index": 0
        },
        "metallicFactor": 0.0,
        "roughnessFactor": 0.23961673026051133
      }
    },
    {
      "doubleSided": true,
      "name": "defaultMat_0",
      "pbrMetallicRoughness": {
        "baseColorTexture": {
          "index": 0
        },
        "metallicFactor": 0.0,
        "roughnessFactor": 0.19694993356170232
      }
    },
    {
      "doubleSided": true,
      "name": "defaultMat_1",
      "pbrMetallicRoughness": {
        "baseColorTexture": {
          "index": 1
        },
        "metallicFactor": 0.0,
        "roughnessFactor": 0.17866416354792702
      }
    },
    {
      "doubleSided": true,
      "name": "defaultMat_2",
      "pbrMetallicRoughness": {
        "baseColorTexture": {
          "index": 2
        },
        "metallicFactor": 0.0,
        "roughnessFactor": 0.1725689068766686
      }
    },
    {
      "alphaMode": "BLEND",
      "doubleSided": true,
      "emissiveFactor": [
        0.28952469188477525,
        0.28952469188477525,
        0.28952469188477525
      ],
      "emissiveTexture": {
        "index": 3
      },
      "extensions": {
        "KHR_materials_clearcoat": {
          "clearcoatFactor": 1.0,
          "clearcoatRoughnessFactor": 0.0
        },
        "KHR_materials_specular": {
          "specularColorFactor": [
            1.0,
            1.0,
            1.0
          ],
          "specularFactor": 0.0
        }
      },
      "name": "defaultMat_3",
      "pbrMetallicRoughness": {
        "baseColorFactor": [
          1.0,
          1.0,
          1.0,
          0.9249551998634662
        ],
        "baseColorTexture": {
          "index": 3
        },
        "roughnessFactor": 0.0
      }
    },
    {
      "doubleSided": true,
      "name": "defaultMat_4",
      "pbrMetallicRoughness": {
        "baseColorTexture": {
          "index": 4
        },
        "metallicFactor": 0.0,
        "roughnessFactor": 0.2152357035754776
      }
    },
    {
      "doubleSided": true,
      "name": "defaultMat_5",
      "pbrMetallicRoughness": {
        "baseColorTexture": {
          "index": 0
        },
        "metallicFactor": 0.0,
        "roughnessFactor": 0.25790250027428663
      }
    }
  ],
  "meshes": [
    {
      "name": "Object_0",
      "primitives": [
        {
          "attributes": {
            "NORMAL": 1,
            "POSITION": 0,
            "TEXCOORD_0": 2
          },
          "indices": 3,
          "material": 6,
          "mode": 4
        }
      ]
    },
    {
      "name": "Object_1",
      "primitives": [
        {
          "attributes": {
            "NORMAL": 5,
            "POSITION": 4,
            "TEXCOORD_0": 6
          },
          "indices": 7,
          "material": 5,
          "mode": 4
        }
      ]
    },
    {
      "name": "Object_2",
      "primitives": [
        {
          "attributes": {
            "COLOR_0": 10,
            "NORMAL": 9,
            "POSITION": 8,
            "TEXCOORD_0": 11
          },
          "indices": 12,
          "material": 4,
          "mode": 4
        }
      ]
    },
    {
      "name": "Object_3",
      "primitives": [
        {
          "attributes": {
            "COLOR_0": 15,
            "NORMAL": 14,
            "POSITION": 13,
            "TEXCOORD_0": 16
          },
          "indices": 17,
          "material": 3,
          "mode": 4
        }
      ]
    },
    {
      "name": "Object_4",
      "primitives": [
        {
          "attributes": {
            "COLOR_0": 20,
            "NORMAL": 19,
            "POSITION": 18,
            "TEXCOORD_0": 21
          },
          "indices": 22,
          "material": 2,
          "mode": 4
        }
      ]
    },
    {
      "name": "Object_5",
      "primitives": [
        {
          "attributes": {
            "COLOR_0": 25,
            "NORMAL": 24,
            "POSITION": 23,
            "TEXCOORD_0": 26
          },
          "indices": 27,
          "material": 2,
          "mode": 4
        }
      ]
    },
    {
      "name": "Object_6",
      "primitives": [
        {
          "attributes": {
            "COLOR_0": 30,
            "NORMAL": 29,
            "POSITION": 28,
            "TEXCOORD_0": 31
          },
          "indices": 32,
          "material": 2,
          "mode": 4
        }
      ]
    },
    {
      "name": "Object_7",
      "primitives": [
        {
          "attributes": {
            "NORMAL": 34,
            "POSITION": 33,
            "TEXCOORD_0": 35
          },
          "indices": 36,
          "material": 1,
          "mode": 4
        }
      ]
    },
    {
      "name": "Object_8",
      "primitives": [
        {
          "attributes": {
            "NORMAL": 38,
            "POSITION": 37,
            "TEXCOORD_0": 39
          },
          "indices": 40,
          "material": 0,
          "mode": 4
        }
      ]
    }
  ],
  "nodes": [
    {
      "children": [
        1
      ],
      "matrix": [
        1.0,
        0.0,
        0.0,
        0.0,
        0.0,
        2.220446049250313e-16,
        -1.0,
        0.0,
        0.0,
        1.0,
        2.220446049250313e-16,
        0.0,
        0.0,
        0.0,
        0.0,
        1.0
      ],
      "name": "Sketchfab_model"
    },
    {
      "children": [
        2,
        4,
        6,
        8,
        10,
        14,
        16
      ],
      "name": "zbrush_concat.osgb.cleaner.materialmerger.gles"
    },
    {
      "children": [
        3
      ],
      "name": "/sketchfab-data/processing/models/fe54b28788874de28ca722eb7367ee70/074796dbd0ed426085d820d7d3f40c27/374642e9dcb448849385cd586a98c760/preprocess/SubTool-6-10842042.obj"
    },
    {
      "mesh": 0,
      "name": "Object_3"
    },
    {
      "children": [
        5
      ],
      "name": "/sketchfab-data/processing/models/fe54b28788874de28ca722eb7367ee70/074796dbd0ed426085d820d7d3f40c27/374642e9dcb448849385cd586a98c760/preprocess/SubTool-5-9927542.obj"
    },
    {
      "mesh": 1,
      "name": "Object_5"
    },
    {
      "children": [
        7
      ],
      "name": "/sketchfab-data/processing/models/fe54b28788874de28ca722eb7367ee70/074796dbd0ed426085d820d7d3f40c27/374642e9dcb448849385cd586a98c760/preprocess/SubTool-4-6605431.obj"
    },
    {
      "mesh": 2,
      "name": "Object_7"
    },
    {
      "children": [
        9
      ],
      "name": "/sketchfab-data/processing/models/fe54b28788874de28ca722eb7367ee70/074796dbd0ed426085d820d7d3f40c27/374642e9dcb448849385cd586a98c760/preprocess/SubTool-3-2545680.obj"
    },
    {
      "mesh": 3,
      "name": "Object_9"
    },
    {
      "children": [
        11,
        12,
        13
      ],
      "name": "/sketchfab-data/processing/models/fe54b28788874de28ca722eb7367ee70/074796dbd0ed426085d820d7d3f40c27/374642e9dcb448849385cd586a98c760/preprocess/SubTool-2-13617939.obj"
    },
    {
      "mesh": 4,
      "name": "Object_11"
    },
    {
      "mesh": 5,
      "name": "Object_12"
    },
    {
      "mesh": 6,
      "name": "Object_13"
    },
    {
      "children": [
        15
      ],
      "name": "/sketchfab-data/processing/models/fe54b28788874de28ca722eb7367ee70/074796dbd0ed426085d820d7d3f40c27/374642e9dcb448849385cd586a98c760/preprocess/SubTool-1-3443277.obj"
    },
    {
      "mesh": 7,
      "name": "Object_15"
    },
    {
      "children": [
        17
      ],
      "name": "/sketchfab-data/processing/models/fe54b28788874de28ca722eb7367ee70/074796dbd0ed426085d820d7d3f40c27/374642e9dcb448849385cd586a98c760/preprocess/SubTool-0-6407159.obj"
    },
    {
      "mesh": 8,
      "name": "Object_17"
    }
  ],
  "samplers": [
    {
      "magFilter": 9729,
      "minFilter": 9987,
      "wrapS": 10497,
      "wrapT": 10497
    }
  ],
  "scene": 0,
  "scenes": [
    {
      "name": "Sketchfab_Scene",
      "nodes": [
        0
      ]
    }
  ],
  "textures": [
    {
      "sampler": 0,
      "source": 0
    },
    {
      "sampler": 0,
      "source": 1
    },
    {
      "sampler": 0,
      "source": 2
    },
    {
      "sampler": 0,
      "source": 3
    },
    {
      "sampler": 0,
      "source": 4
    }
  ]
}
