{
  "accessors": [
    {
      "bufferView": 2,
      "componentType": 5126,
      "count": 1808,
      "max": [
        1.4407740831375122,
        14.652726173400879,
        1.7369999885559082
      ],
      "min": [
        -79.4194107055664,
        -8.705339431762695,
        -30.39423370361328
      ],
      "type": "VEC3"
    },
    {
      "bufferView": 2,
      "byteOffset": 21696,
      "componentType": 5126,
      "count": 1808,
      "max": [
        0.977530300617218,
        0.9999865293502808,
        0.9999990463256836
      ],
      "min": [
        -0.47649797797203064,
        -0.9999865293502808,
        -0.9960461258888245
      ],
      "type": "VEC3"
    },
    {
      "bufferView": 3,
      "componentType": 5126,
      "count": 1808,
      "max": [
        0.8588897585868835,
        0.999832034111023,
        0.9990803599357605,
        1.0
      ],
      "min": [
        -0.9244726896286011,
        -0.9999909996986389,
        -0.9991304278373718,
        -1.0
      ],
      "type": "VEC4"
    },
    {
      "bufferView": 1,
      "componentType": 5126,
      "count": 1808,
      "max": [
        0.15793541073799133,
        0.9578250050544739
      ],
      "min": [
        0.04462255910038948,
        0.04217499494552612
      ],
      "type": "VEC2"
    },
    {
      "bufferView": 1,
      "byteOffset": 14464,
      "componentType": 5126,
      "count": 1808,
      "max": [
        0.15793541073799133,
        0.9578250050544739
      ],
      "min": [
        0.04462255910038948,
        0.04217499494552612
      ],
      "type": "VEC2"
    },
    {
      "bufferView": 0,
      "componentType": 5125,
      "count": 9120,
      "type": "SCALAR"
    }
  ],
  "asset": {
    "extras": {
      "author": "assetfactory (https://sketchfab.com/assetfactory)",
      "license": "SKETCHFAB Standard (https://sketchfab.com/licenses)",
      "source": "https://sketchfab.com/3d-models/lowpoly-marine-plant-efc1b262abd84865ac25df5269068afd",
      "title": "Lowpoly marine plant"
    },
    "generator": "Sketchfab-16.33.0",
    "version": "2.0"
  },
  "bufferViews": [
    {
      "buffer": 0,
      "byteLength": 36480,
      "name": "floatBufferViews",
      "target": 34963
    },
    {
      "buffer": 0,
      "byteLength": 28928,
      "byteOffset": 36480,
      "byteStride": 8,
      "name": "floatBufferViews",
      "target": 34962
    },
    {
      "buffer": 0,
      "byteLength": 43392,
      "byteOffset": 65408,
      "byteStride": 12,
      "name": "floatBufferViews",
      "target": 34962
    },
    {
      "buffer": 0,
      "byteLength": 28928,
      "byteOffset": 108800,
      "byteStride": 16,
      "name": "floatBufferViews",
      "target": 34962
    }
  ],
  "buffers": [
    {
      "byteLength": 137728,
      "uri": "scene.bin"
    }
  ],
  "images": [
    {
      "uri": "textures/leaf_baseColor.jpeg"
    },
    {
      "uri": "textures/leaf_normal.png"
    }
  ],
  "materials": [
    {
      "doubleSided": true,
      "name": "leaf",
      "normalTexture": {
        "index": 1
      },
      "pbrMetallicRoughness": {
        "baseColorTexture": {
          "index": 0
        },
        "metallicFactor": 0.0,
        "roughnessFactor": 0.5
      }
    }
  ],
  "meshes": [
    {
      "name": "Plane_leaf_0",
      "primitives": [
        {
          "attributes": {
            "NORMAL": 1,
            "POSITION": 0,
            "TANGENT": 2,
            "TEXCOORD_0": 3,
            "TEXCOORD_1": 4
          },
          "indices": 5,
          "material": 0,
          "mode": 4
        }
      ]
    }
  ],
  "nodes": [
    {
      "children": [
        1
      ],
      "matrix": [
        1.0,
        0.0,
        0.0,
        0.0,
        0.0,
        2.220446049250313e-16,
        -1.0,
        0.0,
        0.0,
        1.0,
        2.220446049250313e-16,
        0.0,
        0.0,
        0.0,
        0.0,
        1.0
      ],
      "name": "Sketchfab_model"
    },
    {
      "children": [
        2
      ],
      "matrix": [
        0.009999999776482582,
        0.0,
        0.0,
        0.0,
        0.0,
        0.0,
        0.009999999776482582,
        0.0,
        0.0,
        -0.009999999776482582,
        0.0,
        0.0,
        0.0,
        0.0,
        0.0,
        1.0
      ],
      "name": "58bc942127ab44bebfc0f7d28be7209b.fbx"
    },
    {
      "children": [
        3
      ],
      "name": "RootNode"
    },
    {
      "children": [
        4
      ],
      "matrix": [
        -0.1665080230096812,
        -3.5062014911046697,
        -1.0376436886076754,
        0.0,
        4.895381825769061,
        8.693617639388596e-07,
        -0.7855523112539605,
        0.0,
        0.7524785243765816,
        -1.423502675326002,
        4.689271996534107,
        0.0,
        0.6932356357574463,
        -0.5469189882278442,
        4.320084095001221,
        1.0
      ],
      "name": "Plane"
    },
    {
      "mesh": 0,
      "name": "Plane_leaf_0"
    }
  ],
  "samplers": [
    {
      "magFilter": 9729,
      "minFilter": 9987,
      "wrapS": 10497,
      "wrapT": 10497
    }
  ],
  "scene": 0,
  "scenes": [
    {
      "name": "Sketchfab_Scene",
      "nodes": [
        0
      ]
    }
  ],
  "textures": [
    {
      "sampler": 0,
      "source": 0
    },
    {
      "sampler": 0,
      "source": 1
    }
  ]
}
