{
  "accessors": [
    {
      "bufferView": 2,
      "componentType": 5126,
      "count": 10366,
      "max": [
        0.6574493646621704,
        0.7532368898391724,
        1.1320364475250244
      ],
      "min": [
        -0.8476008176803589,
        -0.9334275722503662,
        0.03636188805103302
      ],
      "type": "VEC3"
    },
    {
      "bufferView": 2,
      "byteOffset": 124392,
      "componentType": 5126,
      "count": 10366,
      "max": [
        0.9999457597732544,
        0.9997467994689941,
        0.9999945163726807
      ],
      "min": [
        -0.9996057748794556,
        -0.9996957778930664,
        -0.999876856803894
      ],
      "type": "VEC3"
    },
    {
      "bufferView": 1,
      "componentType": 5126,
      "count": 10366,
      "max": [
        1.2377278804779053,
        0.9773580431938171
      ],
      "min": [
        -0.2698834240436554,
        0.013213160447776318
      ],
      "type": "VEC2"
    },
    {
      "bufferView": 0,
      "componentType": 5125,
      "count": 41616,
      "type": "SCALAR"
    },
    {
      "bufferView": 2,
      "byteOffset": 248784,
      "componentType": 5126,
      "count": 936,
      "max": [
        0.6045545339584351,
        0.6994657516479492,
        1.077812671661377
      ],
      "min": [
        -0.801088273525238,
        -0.8904995918273926,
        0.043057143688201904
      ],
      "type": "VEC3"
    },
    {
      "bufferView": 2,
      "byteOffset": 260016,
      "componentType": 5126,
      "count": 936,
      "max": [
        0.9975844621658325,
        0.9973888397216797,
        0.9999943971633911
      ],
      "min": [
        -0.9950711727142334,
        -0.9951849579811096,
        -0.9999841451644897
      ],
      "type": "VEC3"
    },
    {
      "bufferView": 3,
      "componentType": 5126,
      "count": 936,
      "max": [
        0.6198205947875977,
        0.9795470237731934,
        0.9866302609443665,
        1.0
      ],
      "min": [
        -0.9985286593437195,
        -0.9971545338630676,
        -0.9357682466506958,
        -1.0
      ],
      "type": "VEC4"
    },
    {
      "bufferView": 1,
      "byteOffset": 82928,
      "componentType": 5126,
      "count": 936,
      "max": [
        0.1422969549894333,
        0.9999622702598572
      ],
      "min": [
        3.771585033973679e-05,
        3.771585033973679e-05
      ],
      "type": "VEC2"
    },
    {
      "bufferView": 1,
      "byteOffset": 90416,
      "componentType": 5126,
      "count": 936,
      "max": [
        0.1422969549894333,
        0.9999622702598572
      ],
      "min": [
        3.771585033973679e-05,
        3.771585033973679e-05
      ],
      "type": "VEC2"
    },
    {
      "bufferView": 0,
      "byteOffset": 166464,
      "componentType": 5125,
      "count": 5001,
      "type": "SCALAR"
    },
    {
      "bufferView": 2,
      "byteOffset": 271248,
      "componentType": 5126,
      "count": 6495,
      "max": [
        0.6867817044258118,
        0.6648854613304138,
        1.1168432235717773
      ],
      "min": [
        -0.7528852224349976,
        -0.5638022422790527,
        -0.28451353311538696
      ],
      "type": "VEC3"
    },
    {
      "bufferView": 2,
      "byteOffset": 349188,
      "componentType": 5126,
      "count": 6495,
      "max": [
        0.9994280338287354,
        0.9996848106384277,
        0.9999104738235474
      ],
      "min": [
        -0.9992420673370361,
        -0.9998164176940918,
        -0.9816073179244995
      ],
      "type": "VEC3"
    },
    {
      "bufferView": 3,
      "byteOffset": 14976,
      "componentType": 5126,
      "count": 6495,
      "max": [
        0.9999943375587463,
        0.9998245239257813,
        0.9932867288589478,
        1.0
      ],
      "min": [
        -0.9997718334197998,
        -0.9997332692146301,
        -0.999700129032135,
        1.0
      ],
      "type": "VEC4"
    },
    {
      "bufferView": 1,
      "byteOffset": 97904,
      "componentType": 5126,
      "count": 6495,
      "max": [
        0.9940900802612305,
        1.0
      ],
      "min": [
        0.0,
        0.0
      ],
      "type": "VEC2"
    },
    {
      "bufferView": 1,
      "byteOffset": 149864,
      "componentType": 5126,
      "count": 6495,
      "max": [
        0.9940900802612305,
        1.0
      ],
      "min": [
        0.0,
        0.0
      ],
      "type": "VEC2"
    },
    {
      "bufferView": 0,
      "byteOffset": 186468,
      "componentType": 5125,
      "count": 26712,
      "type": "SCALAR"
    },
    {
      "bufferView": 2,
      "byteOffset": 427128,
      "componentType": 5126,
      "count": 5193,
      "max": [
        1.178533673286438,
        1.148735523223877,
        0.8777804970741272
      ],
      "min": [
        -1.1529194116592407,
        -1.1346442699432373,
        0.4329957664012909
      ],
      "type": "VEC3"
    },
    {
      "bufferView": 2,
      "byteOffset": 489444,
      "componentType": 5126,
      "count": 5193,
      "max": [
        0.9998658895492554,
        0.9968071579933167,
        0.9999194145202637
      ],
      "min": [
        -0.9981712698936462,
        -0.9997161626815796,
        -0.9558635950088501
      ],
      "type": "VEC3"
    },
    {
      "bufferView": 3,
      "byteOffset": 118896,
      "componentType": 5126,
      "count": 5193,
      "max": [
        0.9999720454216003,
        0.9805678129196167,
        0.9996688961982727,
        1.0
      ],
      "min": [
        -0.8387850522994995,
        -0.9454795122146606,
        -0.9997337460517883,
        -1.0
      ],
      "type": "VEC4"
    },
    {
      "bufferView": 1,
      "byteOffset": 201824,
      "componentType": 5126,
      "count": 5193,
      "max": [
        0.9586923122406006,
        0.9583789706230164
      ],
      "min": [
        0.027384446933865547,
        0.02583489380776882
      ],
      "type": "VEC2"
    },
    {
      "bufferView": 0,
      "byteOffset": 293316,
      "componentType": 5125,
      "count": 30474,
      "type": "SCALAR"
    },
    {
      "bufferView": 2,
      "byteOffset": 551760,
      "componentType": 5126,
      "count": 4210,
      "max": [
        0.47044867277145386,
        0.5970070362091064,
        1.4316227436065674
      ],
      "min": [
        -0.373174250125885,
        -0.44483453035354614,
        0.041052594780921936
      ],
      "type": "VEC3"
    },
    {
      "bufferView": 2,
      "byteOffset": 602280,
      "componentType": 5126,
      "count": 4210,
      "max": [
        0.999735951423645,
        0.9996182918548584,
        0.99998939037323
      ],
      "min": [
        -0.9999507665634155,
        -0.9998666048049927,
        -0.999770998954773
      ],
      "type": "VEC3"
    },
    {
      "bufferView": 3,
      "byteOffset": 201984,
      "componentType": 5126,
      "count": 4210,
      "max": [
        0.9826306700706482,
        0.9813028573989868,
        0.9999445080757141,
        1.0
      ],
      "min": [
        -0.9983565807342529,
        -0.9791150689125061,
        -0.9998438954353333,
        -1.0
      ],
      "type": "VEC4"
    },
    {
      "bufferView": 1,
      "byteOffset": 243368,
      "componentType": 5126,
      "count": 4210,
      "max": [
        0.9838687181472778,
        0.8342037200927734
      ],
      "min": [
        0.01613122783601284,
        0.016131162643432617
      ],
      "type": "VEC2"
    },
    {
      "bufferView": 1,
      "byteOffset": 277048,
      "componentType": 5126,
      "count": 4210,
      "max": [
        0.9838687181472778,
        0.8342037200927734
      ],
      "min": [
        0.01613122783601284,
        0.016131162643432617
      ],
      "type": "VEC2"
    },
    {
      "bufferView": 0,
      "byteOffset": 415212,
      "componentType": 5125,
      "count": 23040,
      "type": "SCALAR"
    }
  ],
  "asset": {
    "extras": {
      "author": "assetfactory (https://sketchfab.com/assetfactory)",
      "license": "SKETCHFAB Standard (https://sketchfab.com/licenses)",
      "source": "https://sketchfab.com/3d-models/lowpoly-coral-pack-29d5be0e220f48818346cabfa065e887",
      "title": "Lowpoly Coral Pack"
    },
    "generator": "Sketchfab-16.33.0",
    "version": "2.0"
  },
  "bufferViews": [
    {
      "buffer": 0,
      "byteLength": 507372,
      "name": "floatBufferViews",
      "target": 34963
    },
    {
      "buffer": 0,
      "byteLength": 310728,
      "byteOffset": 507372,
      "byteStride": 8,
      "name": "floatBufferViews",
      "target": 34962
    },
    {
      "buffer": 0,
      "byteLength": 652800,
      "byteOffset": 818100,
      "byteStride": 12,
      "name": "floatBufferViews",
      "target": 34962
    },
    {
      "buffer": 0,
      "byteLength": 269344,
      "byteOffset": 1470900,
      "byteStride": 16,
      "name": "floatBufferViews",
      "target": 34962
    }
  ],
  "buffers": [
    {
      "byteLength": 1740244,
      "uri": "scene.bin"
    }
  ],
  "images": [
    {
      "uri": "textures/coral_4_shell_baseColor.png"
    },
    {
      "uri": "textures/coral_4_inner_baseColor.jpeg"
    },
    {
      "uri": "textures/coral_4_inner_normal.jpeg"
    },
    {
      "uri": "textures/coral_1_baseColor.jpeg"
    },
    {
      "uri": "textures/coral_1_metallicRoughness.png"
    },
    {
      "uri": "textures/coral_1_normal.jpeg"
    },
    {
      "uri": "textures/coral_2_baseColor.png"
    },
    {
      "uri": "textures/coral_2_metallicRoughness.png"
    },
    {
      "uri": "textures/coral_2_normal.png"
    },
    {
      "uri": "textures/coral_3_baseColor.jpeg"
    },
    {
      "uri": "textures/coral_3_normal.jpeg"
    }
  ],
  "materials": [
    {
      "doubleSided": true,
      "name": "coral_4_shell",
      "pbrMetallicRoughness": {
        "baseColorTexture": {
          "index": 0
        },
        "metallicFactor": 0.0,
        "roughnessFactor": 0.92209825384
      }
    },
    {
      "doubleSided": true,
      "name": "coral_4_inner",
      "normalTexture": {
        "index": 2
      },
      "pbrMetallicRoughness": {
        "baseColorTexture": {
          "index": 1
        },
        "metallicFactor": 0.0,
        "roughnessFactor": 0.8
      }
    },
    {
      "doubleSided": true,
      "name": "coral_1",
      "normalTexture": {
        "index": 5
      },
      "occlusionTexture": {
        "index": 4
      },
      "pbrMetallicRoughness": {
        "baseColorTexture": {
          "index": 3
        },
        "metallicFactor": 0.0,
        "metallicRoughnessTexture": {
          "index": 4
        },
        "roughnessFactor": 0.6
      }
    },
    {
      "doubleSided": true,
      "name": "coral_2",
      "normalTexture": {
        "index": 8
      },
      "occlusionTexture": {
        "index": 7
      },
      "pbrMetallicRoughness": {
        "baseColorTexture": {
          "index": 6
        },
        "metallicFactor": 0.0,
        "metallicRoughnessTexture": {
          "index": 7
        },
        "roughnessFactor": 0.3
      }
    },
    {
      "doubleSided": true,
      "name": "coral_3",
      "normalTexture": {
        "index": 10
      },
      "pbrMetallicRoughness": {
        "baseColorTexture": {
          "index": 9
        },
        "metallicFactor": 0.0,
        "roughnessFactor": 0.4
      }
    }
  ],
  "meshes": [
    {
      "name": "coral_4_coral_4_shell_0",
      "primitives": [
        {
          "attributes": {
            "NORMAL": 1,
            "POSITION": 0,
            "TEXCOORD_0": 2
          },
          "indices": 3,
          "material": 0,
          "mode": 4
        }
      ]
    },
    {
      "name": "coral_4_coral_4_inner_0",
      "primitives": [
        {
          "attributes": {
            "NORMAL": 5,
            "POSITION": 4,
            "TANGENT": 6,
            "TEXCOORD_0": 7,
            "TEXCOORD_1": 8
          },
          "indices": 9,
          "material": 1,
          "mode": 4
        }
      ]
    },
    {
      "name": "coral_1_coral_1_0",
      "primitives": [
        {
          "attributes": {
            "NORMAL": 11,
            "POSITION": 10,
            "TANGENT": 12,
            "TEXCOORD_0": 13,
            "TEXCOORD_1": 14
          },
          "indices": 15,
          "material": 2,
          "mode": 4
        }
      ]
    },
    {
      "name": "coral_2_coral_2_0",
      "primitives": [
        {
          "attributes": {
            "NORMAL": 17,
            "POSITION": 16,
            "TANGENT": 18,
            "TEXCOORD_0": 19
          },
          "indices": 20,
          "material": 3,
          "mode": 4
        }
      ]
    },
    {
      "name": "coral_3_coral_3_0",
      "primitives": [
        {
          "attributes": {
            "NORMAL": 22,
            "POSITION": 21,
            "TANGENT": 23,
            "TEXCOORD_0": 24,
            "TEXCOORD_1": 25
          },
          "indices": 26,
          "material": 4,
          "mode": 4
        }
      ]
    }
  ],
  "nodes": [
    {
      "children": [
        1
      ],
      "matrix": [
        1.0,
        0.0,
        0.0,
        0.0,
        0.0,
        2.220446049250313e-16,
        -1.0,
        0.0,
        0.0,
        1.0,
        2.220446049250313e-16,
        0.0,
        0.0,
        0.0,
        0.0,
        1.0
      ],
      "name": "Sketchfab_model"
    },
    {
      "children": [
        2
      ],
      "matrix": [
        0.009999999776482582,
        0.0,
        0.0,
        0.0,
        0.0,
        0.0,
        0.009999999776482582,
        0.0,
        0.0,
        -0.009999999776482582,
        0.0,
        0.0,
        0.0,
        0.0,
        0.0,
        1.0
      ],
      "name": "fa5f3c6bbbb644999a1bdb9be79f51cb.fbx"
    },
    {
      "children": [
        3,
        6,
        8,
        10
      ],
      "name": "RootNode"
    },
    {
      "children": [
        4,
        5
      ],
      "matrix": [
        100.0,
        0.0,
        0.0,
        0.0,
        0.0,
        -1.629206793918314e-05,
        -99.99999999999868,
        0.0,
        0.0,
        99.99999999999868,
        -1.629206793918314e-05,
        0.0,
        91.32901763916016,
        -3.1771962642669678,
        -86.26338195800781,
        1.0
      ],
      "name": "coral_4"
    },
    {
      "mesh": 0,
      "name": "coral_4_coral_4_shell_0"
    },
    {
      "mesh": 1,
      "name": "coral_4_coral_4_inner_0"
    },
    {
      "children": [
        7
      ],
      "matrix": [
        100.0,
        0.0,
        0.0,
        0.0,
        -0.0,
        -1.629206793918314e-05,
        -99.99999999999868,
        0.0,
        0.0,
        99.99999999999868,
        -1.629206793918314e-05,
        0.0,
        -54.0675048828125,
        29.64707374572754,
        -24.787193298339844,
        1.0
      ],
      "name": "coral_1"
    },
    {
      "mesh": 2,
      "name": "coral_1_coral_1_0"
    },
    {
      "children": [
        9
      ],
      "matrix": [
        100.0,
        0.0,
        0.0,
        0.0,
        0.0,
        -1.629206793918314e-05,
        -99.99999999999868,
        0.0,
        0.0,
        99.99999999999868,
        -1.629206793918314e-05,
        0.0,
        57.713497161865234,
        -42.09884262084961,
        99.6897964477539,
        1.0
      ],
      "name": "coral_2"
    },
    {
      "mesh": 3,
      "name": "coral_2_coral_2_0"
    },
    {
      "children": [
        11
      ],
      "matrix": [
        100.0,
        0.0,
        0.0,
        0.0,
        -0.0,
        -1.629206793918314e-05,
        -99.99999999999868,
        0.0,
        0.0,
        99.99999999999868,
        -1.629206793918314e-05,
        0.0,
        -102.95774841308594,
        -6.222787380218506,
        131.60971069335938,
        1.0
      ],
      "name": "coral_3"
    },
    {
      "mesh": 4,
      "name": "coral_3_coral_3_0"
    }
  ],
  "samplers": [
    {
      "magFilter": 9729,
      "minFilter": 9987,
      "wrapS": 10497,
      "wrapT": 10497
    }
  ],
  "scene": 0,
  "scenes": [
    {
      "name": "Sketchfab_Scene",
      "nodes": [
        0
      ]
    }
  ],
  "textures": [
    {
      "sampler": 0,
      "source": 0
    },
    {
      "sampler": 0,
      "source": 1
    },
    {
      "sampler": 0,
      "source": 2
    },
    {
      "sampler": 0,
      "source": 3
    },
    {
      "sampler": 0,
      "source": 4
    },
    {
      "sampler": 0,
      "source": 5
    },
    {
      "sampler": 0,
      "source": 6
    },
    {
      "sampler": 0,
      "source": 7
    },
    {
      "sampler": 0,
      "source": 8
    },
    {
      "sampler": 0,
      "source": 9
    },
    {
      "sampler": 0,
      "source": 10
    }
  ]
}
