{
  "accessors": [
    {
      "bufferView": 2,
      "componentType": 5126,
      "count": 2011,
      "max": [
        81.81444549560547,
        322.7377014160156,
        83.65961456298828
      ],
      "min": [
        -81.81444549560547,
        -0.022308349609375,
        -101.38384246826172
      ],
      "type": "VEC3"
    },
    {
      "bufferView": 2,
      "byteOffset": 24132,
      "componentType": 5126,
      "count": 2011,
      "max": [
        0.9998283386230469,
        1.0,
        0.9924885034561157
      ],
      "min": [
        -0.9997057914733887,
        -1.0,
        -0.9920545816421509
      ],
      "type": "VEC3"
    },
    {
      "bufferView": 1,
      "componentType": 5126,
      "count": 2011,
      "max": [
        0.9891780018806458,
        0.9946340322494507
      ],
      "min": [
        0.008382953703403473,
        0.007099032402038574
      ],
      "type": "VEC2"
    },
    {
      "bufferView": 1,
      "byteOffset": 16088,
      "componentType": 5126,
      "count": 2011,
      "max": [
        0.9891780018806458,
        0.9946340322494507
      ],
      "min": [
        0.008382953703403473,
        0.007099032402038574
      ],
      "type": "VEC2"
    },
    {
      "bufferView": 1,
      "byteOffset": 32176,
      "componentType": 5126,
      "count": 2011,
      "max": [
        0.9891780018806458,
        0.9946340322494507
      ],
      "min": [
        0.008382953703403473,
        0.007099032402038574
      ],
      "type": "VEC2"
    },
    {
      "bufferView": 0,
      "componentType": 5125,
      "count": 7077,
      "type": "SCALAR"
    }
  ],
  "asset": {
    "extras": {
      "author": "Sufi_Artist (https://sketchfab.com/Sufi_Artist)",
      "license": "CC-BY-4.0 (http://creativecommons.org/licenses/by/4.0/)",
      "source": "https://sketchfab.com/3d-models/whimsical-cartoon-jellyfish-3d-model-54343fdf87c34ae29cc92c90e690ab77",
      "title": "Whimsical Cartoon Jellyfish 3D Model"
    },
    "generator": "Sketchfab-16.44.0",
    "version": "2.0"
  },
  "bufferViews": [
    {
      "buffer": 0,
      "byteLength": 28308,
      "name": "floatBufferViews",
      "target": 34963
    },
    {
      "buffer": 0,
      "byteLength": 48264,
      "byteOffset": 28308,
      "byteStride": 8,
      "name": "floatBufferViews",
      "target": 34962
    },
    {
      "buffer": 0,
      "byteLength": 48264,
      "byteOffset": 76572,
      "byteStride": 12,
      "name": "floatBufferViews",
      "target": 34962
    }
  ],
  "buffers": [
    {
      "byteLength": 124836,
      "uri": "scene.bin"
    }
  ],
  "extensionsRequired": [
    "KHR_materials_pbrSpecularGlossiness"
  ],
  "extensionsUsed": [
    "KHR_materials_pbrSpecularGlossiness"
  ],
  "images": [
    {
      "uri": "textures/material_diffuse.png"
    },
    {
      "uri": "textures/material_specularGlossiness.png"
    }
  ],
  "materials": [
    {
      "doubleSided": true,
      "extensions": {
        "KHR_materials_pbrSpecularGlossiness": {
          "diffuseFactor": [
            1.0,
            1.0,
            1.0,
            1.0
          ],
          "diffuseTexture": {
            "index": 0
          },
          "glossinessFactor": 1.0,
          "specularFactor": [
            1.0,
            1.0,
            1.0
          ],
          "specularGlossinessTexture": {
            "index": 1
          }
        }
      },
      "name": "material"
    }
  ],
  "meshes": [
    {
      "name": "Object_0",
      "primitives": [
        {
          "attributes": {
            "NORMAL": 1,
            "POSITION": 0,
            "TEXCOORD_0": 2,
            "TEXCOORD_1": 3,
            "TEXCOORD_2": 4
          },
          "indices": 5,
          "material": 0,
          "mode": 4
        }
      ]
    }
  ],
  "nodes": [
    {
      "children": [
        1
      ],
      "matrix": [
        1.0,
        0.0,
        0.0,
        0.0,
        0.0,
        2.220446049250313e-16,
        -1.0,
        0.0,
        0.0,
        1.0,
        2.220446049250313e-16,
        0.0,
        0.0,
        0.0,
        0.0,
        1.0
      ],
      "name": "Sketchfab_model"
    },
    {
      "children": [
        2
      ],
      "name": "root"
    },
    {
      "children": [
        3
      ],
      "matrix": [
        1.0,
        0.0,
        0.0,
        0.0,
        0.0,
        2.220446049250313e-16,
        1.0,
        0.0,
        0.0,
        -1.0,
        2.220446049250313e-16,
        0.0,
        0.0,
        0.0,
        0.0,
        1.0
      ],
      "name": "GLTF_SceneRootNode"
    },
    {
      "children": [
        4
      ],
      "name": "root_0"
    },
    {
      "children": [
        5
      ],
      "matrix": [
        2.2157153006960713e-10,
        -0.0,
        -0.0013142828829586317,
        0.0,
        0.0,
        0.0013142829993739724,
        0.0,
        0.0,
        0.0013142828829586317,
        0.0,
        2.2157153006960713e-10,
        0.0,
        -0.029959024861454964,
        -0.22209960222244263,
        0.28116992115974426,
        1.0
      ],
      "name": "node_id731_1"
    },
    {
      "mesh": 0,
      "name": "Object_5"
    }
  ],
  "samplers": [
    {
      "magFilter": 9729,
      "minFilter": 9987,
      "wrapS": 10497,
      "wrapT": 10497
    }
  ],
  "scene": 0,
  "scenes": [
    {
      "name": "Sketchfab_Scene",
      "nodes": [
        0
      ]
    }
  ],
  "textures": [
    {
      "sampler": 0,
      "source": 0
    },
    {
      "sampler": 0,
      "source": 1
    }
  ]
}
